<svg xmlns="http://www.w3.org/2000/svg" width="900" height="610" viewBox="0 0 900 610" role="img" aria-label="Eight projects, newest first. V.O.I.C.E., JUL 2026: Desktop agent that reads the screen through a numbered coordinate grid and acts on a spoken command. Built with Python · Gemini Vision · PyAutoGUI. Vantage Hub, MAY 2026: IoT energy system that reconstructs current and voltage waveforms per appliance and forecasts the bill. Built with Flutter · ESP32-S3 · FreeRTOS · scikit-learn. LogicLoom, MAY 2026: Chat platform with an input guardian for jailbreaks and an output guardian for prompt leaks. Built with Flask · LangChain · Groq · MySQL. Live and reachable. ISS Overhead, APR 2026: Tracks the space station every five seconds and emails you on a double opt-in when it passes over. Built with Next.js · TypeScript · FastAPI · Supabase. Live and reachable. Due Desk, OCT 2025: Deadline tracker with priority tagging and automated email reminders. Built with Firebase · Firestore · Nodemailer. Live and reachable. Smart Agent, OCT 2025: Token-streaming assistant. The first thing I deployed, and where the safety pattern started. Built with JavaScript · LLM APIs. Live and reachable. Build My Week, AUG 2025: Drag-and-drop weekly planner with image export, written without a framework. Built with Vanilla JS · CSS. Live and reachable. Universal Sync: Delta-based real-time sync across Android and desktop JVM from a single codebase. Built with Kotlin Multiplatform · Compose · Supabase · Ktor.">
<defs>
  <pattern id="dots_pw" width="22" height="22" patternUnits="userSpaceOnUse"><circle cx="1.1" cy="1.1" r="1" fill="#a78bfa" opacity="0.05"/></pattern>
  <linearGradient id="card_pw" x1="0" y1="0" x2="0.6" y2="1"><stop offset="0%" stop-color="#12141f"/><stop offset="100%" stop-color="#0b0d16"/></linearGradient>
  <linearGradient id="chip_pw" x1="0" y1="0" x2="0" y2="1"><stop offset="0%" stop-color="#1a1d2e"/><stop offset="100%" stop-color="#131627"/></linearGradient>
  <linearGradient id="sweep_pw" x1="0" y1="0" x2="1" y2="0"><stop offset="0%" stop-color="#a78bfa" stop-opacity="0"/><stop offset="50%" stop-color="#a78bfa" stop-opacity=".85"/><stop offset="100%" stop-color="#a78bfa" stop-opacity="0"/></linearGradient>
  <radialGradient id="glow_pw" cx="0.5" cy="0.5" r="0.5"><stop offset="0%" stop-color="#6366f1" stop-opacity=".30"/><stop offset="100%" stop-color="#6366f1" stop-opacity="0"/></radialGradient>
  <clipPath id="clip_pw"><rect width="900" height="610" rx="14"/></clipPath>
  <clipPath id="vclip_pw"><rect width="104" height="80" rx="8"/></clipPath>
</defs>
<style>
  .sans{font-family:'Segoe UI',Inter,system-ui,-apple-system,Helvetica,Arial,sans-serif}
  .mono{font-family:'JetBrains Mono','SF Mono',ui-monospace,Consolas,'DejaVu Sans Mono',monospace}
  .drift{animation:drift 26s linear infinite}
  @keyframes drift{to{transform:translate(22px,22px)}}
  .puls{animation:puls 3.4s ease-in-out infinite}
  @keyframes puls{0%,100%{opacity:.45}50%{opacity:1}}
  .halo{animation:halo 2.6s ease-out infinite}
  @keyframes halo{0%{opacity:.55;transform:scale(1)}100%{opacity:0;transform:scale(2.6)}}
  .march{stroke-dasharray:3 6;animation:march 1.5s linear infinite}
  @keyframes march{to{stroke-dashoffset:-9}}
  .flow{stroke-dasharray:5 9;animation:flow 1.9s linear infinite}
  @keyframes flow{to{stroke-dashoffset:-14}}
  .edge{opacity:0;animation:edge 6.8s ease-in-out infinite}
  @keyframes edge{0%{opacity:0}5%{opacity:1}15%{opacity:1}22%{opacity:0}100%{opacity:0}}
  .cyc6{opacity:0;animation:cyc6 4.2s linear infinite}
  @keyframes cyc6{0%{opacity:0}4%{opacity:1}13%{opacity:1}17%{opacity:0}100%{opacity:0}}
  .cyc5{opacity:0;animation:cyc5 3s linear infinite}
  @keyframes cyc5{0%{opacity:0}6%{opacity:1}18%{opacity:1}24%{opacity:0}100%{opacity:0}}
  .cyc3{opacity:0;animation:cyc3 3.3s linear infinite}
  @keyframes cyc3{0%{opacity:0}8%{opacity:1}28%{opacity:1}36%{opacity:0}100%{opacity:0}}
  .wv{animation:wv 1.1s ease-in-out infinite}
  @keyframes wv{0%,100%{opacity:.35}50%{opacity:1}}
  .tok{opacity:.25;animation:tok 3.4s linear infinite}
  @keyframes tok{0%{opacity:.25}10%{opacity:1}70%{opacity:1}80%{opacity:.25}100%{opacity:.25}}
  .caret{animation:caret 1s step-end infinite}
  @keyframes caret{0%,50%{opacity:1}51%,100%{opacity:0}}
  .ring{animation:ring 6s linear infinite}
  @keyframes ring{0%{stroke-dashoffset:0}100%{stroke-dashoffset:88}}
  .hand{animation:hand 6s linear infinite;transform-origin:0 0}
  @keyframes hand{to{transform:rotate(360deg)}}
  .drag{animation:drag 5s ease-in-out infinite}
  @keyframes drag{0%,100%{transform:translate(0,0)}45%,55%{transform:translate(26px,-8px)}}
  .orb{stroke-dasharray:14 200;animation:orb 6s linear infinite}
  @keyframes orb{to{stroke-dashoffset:-214}}
</style>
<rect width="900" height="610" rx="14" fill="url(#card_pw)"/>
<g clip-path="url(#clip_pw)">
  <rect class="drift" x="-22" y="-22" width="944" height="654" fill="url(#dots_pw)"/>
  <ellipse cx="738" cy="-30" rx="405" ry="150" fill="url(#glow_pw)"/>
</g>
<rect x=".75" y=".75" width="898.5" height="608.5" rx="13.25" fill="none" stroke="#232739"/>
<rect class="puls" x="22" y="24" width="2.5" height="13" rx="1.25" fill="#6366f1"/>
<text class="mono" x="35" y="34" font-size="9.5" letter-spacing="1.5" fill="#c3c7db">NEWEST FIRST · EVERY VISUAL BUILT FOR ITS OWN PROJECT</text>
<text class="mono" x="878" y="34" font-size="9.5" letter-spacing="1.2" fill="#6366f1" text-anchor="end">8 PROJECTS · 5 LIVE</text>
<path d="M22 47h856" stroke="#232739"/>

<g transform="translate(16.0 68)">
  <rect width="428.0" height="116" rx="11" fill="url(#chip_pw)" stroke="#232739"/>
  <rect class="edge" width="428.0" height="116" rx="11" fill="none" stroke="#6366f1" stroke-opacity=".7" style="animation-delay:0.00s"/>
  <rect x="0" y="14" width="2.5" height="88" rx="1.25" fill="#2f3450"/>
  <rect class="edge" x="0" y="14" width="2.5" height="88" rx="1.25" fill="#a78bfa" style="animation-delay:0.00s"/>
  <rect x="12" y="18" width="104" height="80" rx="8" fill="#0b0d16" fill-opacity=".55" stroke="#232739"/>
  <g transform="translate(12 18)" clip-path="url(#vclip_pw)"><rect x="8" y="6" width="88" height="50" rx="5" fill="none" stroke="#2f3450"/>
<g stroke="#232739" stroke-width=".7"><path d="M35 6V56"/><path d="M61 6V56"/><path d="M87 6V56"/><path d="M8 28H96"/><path d="M8 46H96"/></g>
<rect class="cyc6" x="10" y="10" width="25" height="17" rx="3" fill="#6366f1" fill-opacity=".3" stroke="#6366f1" style="animation-delay:0.00s"/><rect class="cyc6" x="36" y="10" width="25" height="17" rx="3" fill="#6366f1" fill-opacity=".3" stroke="#6366f1" style="animation-delay:0.60s"/><rect class="cyc6" x="62" y="10" width="25" height="17" rx="3" fill="#6366f1" fill-opacity=".3" stroke="#6366f1" style="animation-delay:1.20s"/><rect class="cyc6" x="10" y="28" width="25" height="17" rx="3" fill="#6366f1" fill-opacity=".3" stroke="#6366f1" style="animation-delay:1.80s"/><rect class="cyc6" x="36" y="28" width="25" height="17" rx="3" fill="#6366f1" fill-opacity=".3" stroke="#6366f1" style="animation-delay:2.40s"/><rect class="cyc6" x="62" y="28" width="25" height="17" rx="3" fill="#6366f1" fill-opacity=".3" stroke="#6366f1" style="animation-delay:3.00s"/>
<text class="mono" x="22" y="22" font-size="6" fill="#5c6180" text-anchor="middle">1</text><text class="mono" x="48" y="22" font-size="6" fill="#5c6180" text-anchor="middle">2</text><text class="mono" x="74" y="22" font-size="6" fill="#5c6180" text-anchor="middle">3</text><text class="mono" x="22" y="40" font-size="6" fill="#5c6180" text-anchor="middle">4</text><text class="mono" x="48" y="40" font-size="6" fill="#5c6180" text-anchor="middle">5</text><text class="mono" x="74" y="40" font-size="6" fill="#5c6180" text-anchor="middle">6</text>
<g class="cyc6" style="animation-delay:0.00s"><path d="M17 15l0 0" stroke="none"/><path d="M22 13v6M19 16h6" stroke="#a78bfa" stroke-width="1.1"/></g>
<g stroke="#a78bfa" stroke-width="1.6" stroke-linecap="round"><path class="wv" d="M26 68v6" style="animation-delay:0.00s"/><path class="wv" d="M35 65v12" style="animation-delay:0.13s"/><path class="wv" d="M44 62v18" style="animation-delay:0.26s"/><path class="wv" d="M53 68v6" style="animation-delay:0.39s"/><path class="wv" d="M62 65v12" style="animation-delay:0.52s"/><path class="wv" d="M71 62v18" style="animation-delay:0.65s"/><path class="wv" d="M80 68v6" style="animation-delay:0.78s"/></g>
<circle cx="16" cy="70" r="3.4" fill="none" stroke="#6366f1" stroke-width="1.1"/><circle class="puls" cx="16" cy="70" r="1.6" fill="#6366f1"/></g>
  <text class="sans" x="130" y="36" font-size="13.5" font-weight="700" letter-spacing="-.1" fill="#e7e9f2">V.O.I.C.E.</text>
  <text class="mono" x="414" y="35" font-size="8.5" letter-spacing="1.1" fill="#6366f1" text-anchor="end">JUL 2026</text>
  <text class="mono" x="130" y="54" font-size="8.4" fill="#8b90a8">Desktop agent that reads the screen through a</text>
  <text class="mono" x="130" y="66" font-size="8.4" fill="#8b90a8">numbered coordinate grid and acts on a spoken</text>
  <text class="mono" x="130" y="78" font-size="8.4" fill="#8b90a8">command.</text>
  <text class="mono" x="130" y="102" font-size="7.8" letter-spacing=".5" fill="#5c6180">Python · Gemini Vision · PyAutoGUI</text>
  <text class="mono" x="14" y="110" font-size="7" letter-spacing="1" fill="#5c6180">01</text>
  
</g>
<g transform="translate(456.0 68)">
  <rect width="428.0" height="116" rx="11" fill="url(#chip_pw)" stroke="#232739"/>
  <rect class="edge" width="428.0" height="116" rx="11" fill="none" stroke="#6366f1" stroke-opacity=".7" style="animation-delay:0.42s"/>
  <rect x="0" y="14" width="2.5" height="88" rx="1.25" fill="#2f3450"/>
  <rect class="edge" x="0" y="14" width="2.5" height="88" rx="1.25" fill="#a78bfa" style="animation-delay:0.42s"/>
  <rect x="12" y="18" width="104" height="80" rx="8" fill="#0b0d16" fill-opacity=".55" stroke="#232739"/>
  <g transform="translate(12 18)" clip-path="url(#vclip_pw)"><path d="M6 30H98" stroke="#232739" stroke-dasharray="2 4"/>
<path d="M6 30Q14 8 22 30T38 30T54 30T70 30T86 30T98 30" fill="none" stroke="#2f3450" stroke-width="1.6"/>
<path class="flow" d="M6 30Q14 8 22 30T38 30T54 30T70 30T86 30T98 30" fill="none" stroke="#a78bfa" stroke-width="1.6"/>
<circle cx="6" cy="30" r="2.4" fill="#a78bfa"><animateMotion dur="3.4s" repeatCount="indefinite" path="M0,0Q8,-22 16,0T32,0T48,0T64,0T80,0T92,0"/></circle>
<path d="M6 58H98" stroke="#2f3450"/>
<rect x="10" y="65.6" width="11" height="8.4" rx="2" fill="url(#chip_pw)" stroke="#232739"/>
<rect class="cyc5" x="10" y="65.6" width="11" height="8.4" rx="2" fill="#6366f1" fill-opacity=".55" style="animation-delay:0.00s"/><rect x="28" y="59.44" width="11" height="14.6" rx="2" fill="url(#chip_pw)" stroke="#232739"/>
<rect class="cyc5" x="28" y="59.44" width="11" height="14.6" rx="2" fill="#6366f1" fill-opacity=".55" style="animation-delay:0.50s"/><rect x="46" y="68.4" width="11" height="5.6" rx="2" fill="url(#chip_pw)" stroke="#232739"/>
<rect class="cyc5" x="46" y="68.4" width="11" height="5.6" rx="2" fill="#6366f1" fill-opacity=".55" style="animation-delay:1.00s"/><rect x="64" y="61.68" width="11" height="12.3" rx="2" fill="url(#chip_pw)" stroke="#232739"/>
<rect class="cyc5" x="64" y="61.68" width="11" height="12.3" rx="2" fill="#6366f1" fill-opacity=".55" style="animation-delay:1.50s"/><rect x="82" y="63.92" width="11" height="10.1" rx="2" fill="url(#chip_pw)" stroke="#232739"/>
<rect class="cyc5" x="82" y="63.92" width="11" height="10.1" rx="2" fill="#6366f1" fill-opacity=".55" style="animation-delay:2.00s"/>
<text class="mono" x="6" y="20" font-size="6" letter-spacing=".5" fill="#5c6180">V / A</text></g>
  <text class="sans" x="130" y="36" font-size="13.5" font-weight="700" letter-spacing="-.1" fill="#e7e9f2">Vantage Hub</text>
  <text class="mono" x="414" y="35" font-size="8.5" letter-spacing="1.1" fill="#6366f1" text-anchor="end">MAY 2026</text>
  <text class="mono" x="130" y="54" font-size="8.4" fill="#8b90a8">IoT energy system that reconstructs current and</text>
  <text class="mono" x="130" y="66" font-size="8.4" fill="#8b90a8">voltage waveforms per appliance and forecasts the</text>
  <text class="mono" x="130" y="78" font-size="8.4" fill="#8b90a8">bill.</text>
  <text class="mono" x="130" y="102" font-size="7.8" letter-spacing=".5" fill="#5c6180">Flutter · ESP32-S3 · FreeRTOS · scikit-learn</text>
  <text class="mono" x="14" y="110" font-size="7" letter-spacing="1" fill="#5c6180">02</text>
  
</g>
<g transform="translate(16.0 196)">
  <rect width="428.0" height="116" rx="11" fill="url(#chip_pw)" stroke="#232739"/>
  <rect class="edge" width="428.0" height="116" rx="11" fill="none" stroke="#6366f1" stroke-opacity=".7" style="animation-delay:0.84s"/>
  <rect x="0" y="14" width="2.5" height="88" rx="1.25" fill="#2f3450"/>
  <rect class="edge" x="0" y="14" width="2.5" height="88" rx="1.25" fill="#a78bfa" style="animation-delay:0.84s"/>
  <rect x="12" y="18" width="104" height="80" rx="8" fill="#0b0d16" fill-opacity=".55" stroke="#232739"/>
  <g transform="translate(12 18)" clip-path="url(#vclip_pw)"><g transform="translate(13 30)"><path d="M0-9l7.5 2.8v5.4C7.5 2.6 4.2 5.2 0 6.2-4.2 5.2-7.5 2.6-7.5-.8v-5.4z" fill="#6366f1" fill-opacity=".14" stroke="#6366f1" stroke-width="1.1"/><path d="M-3-1l2.4 2.4L3.6-3" fill="none" stroke="#6366f1" stroke-width="1.2" stroke-linecap="round"/></g>
<g transform="translate(91 30)"><path d="M0-9l7.5 2.8v5.4C7.5 2.6 4.2 5.2 0 6.2-4.2 5.2-7.5 2.6-7.5-.8v-5.4z" fill="#6366f1" fill-opacity=".14" stroke="#6366f1" stroke-width="1.1"/><path d="M-3-1l2.4 2.4L3.6-3" fill="none" stroke="#6366f1" stroke-width="1.2" stroke-linecap="round"/></g>
<path d="M23 30H81" stroke="#2f3450"/>
<path class="flow" d="M23 30H81" stroke="#a78bfa" stroke-width="1.3"/>
<rect x="28" y="26" width="7" height="8" rx="2" fill="#a78bfa"><animateMotion dur="2.8s" begin="0.00s" repeatCount="indefinite" path="M0,0H46"/></rect><rect x="28" y="26" width="7" height="8" rx="2" fill="#a78bfa"><animateMotion dur="2.8s" begin="0.70s" repeatCount="indefinite" path="M0,0H46"/></rect><rect x="28" y="26" width="7" height="8" rx="2" fill="#a78bfa"><animateMotion dur="2.8s" begin="1.40s" repeatCount="indefinite" path="M0,0H46"/></rect><rect x="28" y="26" width="7" height="8" rx="2" fill="#a78bfa"><animateMotion dur="2.8s" begin="2.10s" repeatCount="indefinite" path="M0,0H46"/></rect>
<rect x="74" y="26" width="7" height="8" rx="2" fill="#f0a742"/>
<path d="M78 20v-4" stroke="#f0a742" stroke-width="1.1"/><text class="mono" x="78" y="14" font-size="6" fill="#f0a742" text-anchor="middle">STOP</text>
<text class="mono" x="13" y="50" font-size="6" letter-spacing=".4" fill="#5c6180" text-anchor="middle">IN</text>
<text class="mono" x="91" y="50" font-size="6" letter-spacing=".4" fill="#5c6180" text-anchor="middle">OUT</text>
<g stroke="#232739"><path d="M24 62v4"/><path d="M31 62v8"/><path d="M38 62v12"/><path d="M45 62v4"/><path d="M52 62v8"/><path d="M59 62v12"/><path d="M66 62v4"/><path d="M73 62v8"/><path d="M80 62v12"/></g>
<text class="mono" x="52" y="78" font-size="6" letter-spacing="1" fill="#5c6180" text-anchor="middle">131K CONTEXT</text></g>
  <text class="sans" x="130" y="36" font-size="13.5" font-weight="700" letter-spacing="-.1" fill="#e7e9f2">LogicLoom</text>
  <text class="mono" x="414" y="35" font-size="8.5" letter-spacing="1.1" fill="#6366f1" text-anchor="end">MAY 2026</text>
  <text class="mono" x="130" y="54" font-size="8.4" fill="#8b90a8">Chat platform with an input guardian for jailbreaks</text>
  <text class="mono" x="130" y="66" font-size="8.4" fill="#8b90a8">and an output guardian for prompt leaks.</text>
  <text class="mono" x="130" y="102" font-size="7.8" letter-spacing=".5" fill="#5c6180">Flask · LangChain · Groq · MySQL</text>
  <text class="mono" x="14" y="110" font-size="7" letter-spacing="1" fill="#5c6180">03</text>
  <rect x="376" y="90" width="38" height="15" rx="5" fill="#6366f1" fill-opacity=".16" stroke="#6366f1" stroke-opacity=".5"/>
  <circle class="puls" cx="384" cy="97.5" r="2" fill="#6366f1" style="animation-delay:0.84s"/>
  <text class="mono" x="391" y="101" font-size="7" letter-spacing=".8" fill="#6366f1">LIVE</text>
</g>
<g transform="translate(456.0 196)">
  <rect width="428.0" height="116" rx="11" fill="url(#chip_pw)" stroke="#232739"/>
  <rect class="edge" width="428.0" height="116" rx="11" fill="none" stroke="#6366f1" stroke-opacity=".7" style="animation-delay:1.26s"/>
  <rect x="0" y="14" width="2.5" height="88" rx="1.25" fill="#2f3450"/>
  <rect class="edge" x="0" y="14" width="2.5" height="88" rx="1.25" fill="#a78bfa" style="animation-delay:1.26s"/>
  <rect x="12" y="18" width="104" height="80" rx="8" fill="#0b0d16" fill-opacity=".55" stroke="#232739"/>
  <g transform="translate(12 18)" clip-path="url(#vclip_pw)"><path d="M6 72A46 46 0 0 1 98 72" fill="none" stroke="#2f3450" stroke-width="1.4"/>
<path d="M6 72A46 46 0 0 1 98 72" fill="url(#glow_pw)" fill-opacity=".5" stroke="none"/>
<g stroke="#232739" stroke-width=".7"><path d="M20 58.1V72"/><path d="M36 53.9V72"/><path d="M52 52.7V72"/><path d="M68 53.9V72"/><path d="M84 58.1V72"/></g>
<ellipse cx="52" cy="42" rx="44" ry="21" fill="none" stroke="#232739" stroke-dasharray="3 4"/>
<ellipse class="orb" cx="52" cy="42" rx="44" ry="21" fill="none" stroke="#6366f1" stroke-width="1.2"/>
<g><animateMotion dur="6s" repeatCount="indefinite" path="M44,-21A44,21 0 1 1 44,21A44,21 0 1 1 44,-21" /><g transform="translate(52 42)"><rect x="-3" y="-2.4" width="6" height="4.8" rx="1.4" fill="#a78bfa"/><path d="M-8-1h4M4-1h4" stroke="#a78bfa" stroke-width="1.4"/></g></g>
<circle class="halo" cx="52" cy="70" r="3" fill="none" stroke="#a78bfa" stroke-width="1.2" style="transform-origin:52px 70px"/>
<circle cx="52" cy="70" r="2.2" fill="#a78bfa"/>
<text class="mono" x="52" y="14" font-size="6" letter-spacing=".8" fill="#5c6180" text-anchor="middle">POLL 5s</text></g>
  <text class="sans" x="130" y="36" font-size="13.5" font-weight="700" letter-spacing="-.1" fill="#e7e9f2">ISS Overhead</text>
  <text class="mono" x="414" y="35" font-size="8.5" letter-spacing="1.1" fill="#6366f1" text-anchor="end">APR 2026</text>
  <text class="mono" x="130" y="54" font-size="8.4" fill="#8b90a8">Tracks the space station every five seconds and</text>
  <text class="mono" x="130" y="66" font-size="8.4" fill="#8b90a8">emails you on a double opt-in when it passes over.</text>
  <text class="mono" x="130" y="102" font-size="7.8" letter-spacing=".5" fill="#5c6180">Next.js · TypeScript · FastAPI · Supabase</text>
  <text class="mono" x="14" y="110" font-size="7" letter-spacing="1" fill="#5c6180">04</text>
  <rect x="376" y="90" width="38" height="15" rx="5" fill="#6366f1" fill-opacity=".16" stroke="#6366f1" stroke-opacity=".5"/>
  <circle class="puls" cx="384" cy="97.5" r="2" fill="#6366f1" style="animation-delay:1.26s"/>
  <text class="mono" x="391" y="101" font-size="7" letter-spacing=".8" fill="#6366f1">LIVE</text>
</g>
<g transform="translate(16.0 324)">
  <rect width="428.0" height="116" rx="11" fill="url(#chip_pw)" stroke="#232739"/>
  <rect class="edge" width="428.0" height="116" rx="11" fill="none" stroke="#6366f1" stroke-opacity=".7" style="animation-delay:1.68s"/>
  <rect x="0" y="14" width="2.5" height="88" rx="1.25" fill="#2f3450"/>
  <rect class="edge" x="0" y="14" width="2.5" height="88" rx="1.25" fill="#a78bfa" style="animation-delay:1.68s"/>
  <rect x="12" y="18" width="104" height="80" rx="8" fill="#0b0d16" fill-opacity=".55" stroke="#232739"/>
  <g transform="translate(12 18)" clip-path="url(#vclip_pw)"><rect x="6" y="14" width="62" height="13" rx="3.5" fill="url(#chip_pw)" stroke="#232739"/>
<rect x="6" y="14" width="3" height="13" rx="1.5" fill="#f0a742"/>
<rect class="cyc3" x="6" y="14" width="62" height="13" rx="3.5" fill="none" stroke="#f0a742" style="animation-delay:0.0s"/>
<g stroke="#2f3450" stroke-width=".8"><path d="M14 20.5h6"/><path d="M23 20.5h6"/><path d="M32 20.5h6"/></g><rect x="6" y="33" width="48" height="13" rx="3.5" fill="url(#chip_pw)" stroke="#232739"/>
<rect x="6" y="33" width="3" height="13" rx="1.5" fill="#6366f1"/>
<rect class="cyc3" x="6" y="33" width="48" height="13" rx="3.5" fill="none" stroke="#6366f1" style="animation-delay:1.1s"/>
<g stroke="#2f3450" stroke-width=".8"><path d="M14 39.5h6"/><path d="M23 39.5h6"/><path d="M32 39.5h6"/></g><rect x="6" y="52" width="40" height="13" rx="3.5" fill="url(#chip_pw)" stroke="#232739"/>
<rect x="6" y="52" width="3" height="13" rx="1.5" fill="#5c6180"/>
<rect class="cyc3" x="6" y="52" width="40" height="13" rx="3.5" fill="none" stroke="#5c6180" style="animation-delay:2.2s"/>
<g stroke="#2f3450" stroke-width=".8"><path d="M14 58.5h6"/><path d="M23 58.5h6"/><path d="M32 58.5h6"/></g>
<g transform="translate(84 40)">
  <circle r="14" fill="none" stroke="#2f3450" stroke-width="2.4"/>
  <circle class="ring" r="14" fill="none" stroke="#6366f1" stroke-width="2.4" stroke-linecap="round" stroke-dasharray="88" transform="rotate(-90)"/>
  <path class="hand" d="M0 0v-8" stroke="#a78bfa" stroke-width="1.3" stroke-linecap="round"/>
  <circle r="1.6" fill="#a78bfa"/>
</g>
<path d="M6 72h46" stroke="#232739"/>
<g transform="translate(12 76)"><path d="M-4-3h8v6h-8z" fill="none" stroke="#5c6180" stroke-width="1"/><path d="M-4-3l4 3 4-3" fill="none" stroke="#5c6180" stroke-width="1"/></g>
<text class="mono" x="22" y="79" font-size="6" letter-spacing=".6" fill="#5c6180">REMINDER SENT</text></g>
  <text class="sans" x="130" y="36" font-size="13.5" font-weight="700" letter-spacing="-.1" fill="#e7e9f2">Due Desk</text>
  <text class="mono" x="414" y="35" font-size="8.5" letter-spacing="1.1" fill="#6366f1" text-anchor="end">OCT 2025</text>
  <text class="mono" x="130" y="54" font-size="8.4" fill="#8b90a8">Deadline tracker with priority tagging and automated</text>
  <text class="mono" x="130" y="66" font-size="8.4" fill="#8b90a8">email reminders.</text>
  <text class="mono" x="130" y="102" font-size="7.8" letter-spacing=".5" fill="#5c6180">Firebase · Firestore · Nodemailer</text>
  <text class="mono" x="14" y="110" font-size="7" letter-spacing="1" fill="#5c6180">05</text>
  <rect x="376" y="90" width="38" height="15" rx="5" fill="#6366f1" fill-opacity=".16" stroke="#6366f1" stroke-opacity=".5"/>
  <circle class="puls" cx="384" cy="97.5" r="2" fill="#6366f1" style="animation-delay:1.68s"/>
  <text class="mono" x="391" y="101" font-size="7" letter-spacing=".8" fill="#6366f1">LIVE</text>
</g>
<g transform="translate(456.0 324)">
  <rect width="428.0" height="116" rx="11" fill="url(#chip_pw)" stroke="#232739"/>
  <rect class="edge" width="428.0" height="116" rx="11" fill="none" stroke="#6366f1" stroke-opacity=".7" style="animation-delay:2.10s"/>
  <rect x="0" y="14" width="2.5" height="88" rx="1.25" fill="#2f3450"/>
  <rect class="edge" x="0" y="14" width="2.5" height="88" rx="1.25" fill="#a78bfa" style="animation-delay:2.10s"/>
  <rect x="12" y="18" width="104" height="80" rx="8" fill="#0b0d16" fill-opacity=".55" stroke="#232739"/>
  <g transform="translate(12 18)" clip-path="url(#vclip_pw)"><g><rect x="40" y="8" width="56" height="16" rx="6" fill="url(#chip_pw)" stroke="#232739"/>
<g stroke="#5c6180" stroke-width="1"><path d="M48 16h7"/><path d="M59 16h7"/><path d="M70 16h7"/><path d="M81 16h7"/></g></g>
<rect x="6" y="30" width="72" height="30" rx="6" fill="#6366f1" fill-opacity=".1" stroke="#6366f1" stroke-opacity=".5"/>
<g><rect class="tok" x="13" y="38" width="8" height="6" rx="2" fill="#a78bfa" style="animation-delay:0.00s"/><rect class="tok" x="24" y="38" width="8" height="6" rx="2" fill="#a78bfa" style="animation-delay:0.34s"/><rect class="tok" x="35" y="38" width="8" height="6" rx="2" fill="#a78bfa" style="animation-delay:0.68s"/><rect class="tok" x="46" y="38" width="8" height="6" rx="2" fill="#a78bfa" style="animation-delay:1.02s"/><rect class="tok" x="57" y="38" width="8" height="6" rx="2" fill="#a78bfa" style="animation-delay:1.36s"/></g>
<g><rect class="tok" x="13" y="49" width="8" height="6" rx="2" fill="#a78bfa" fill-opacity=".6" style="animation-delay:1.70s"/><rect class="tok" x="24" y="49" width="8" height="6" rx="2" fill="#a78bfa" fill-opacity=".6" style="animation-delay:2.04s"/><rect class="tok" x="35" y="49" width="8" height="6" rx="2" fill="#a78bfa" fill-opacity=".6" style="animation-delay:2.38s"/><rect class="tok" x="46" y="49" width="8" height="6" rx="2" fill="#a78bfa" fill-opacity=".6" style="animation-delay:2.72s"/></g>
<rect class="caret" x="58" y="48" width="2" height="8" fill="#6366f1"/>
<circle cx="88" cy="45" r="7" fill="none" stroke="#2f3450"/><path d="M85 45l2.2 2.2 4-4.6" fill="none" stroke="#6366f1" stroke-width="1.3" stroke-linecap="round"/>
<text class="mono" x="6" y="76" font-size="6" letter-spacing=".8" fill="#5c6180">FIRST DEPLOY · 2025</text></g>
  <text class="sans" x="130" y="36" font-size="13.5" font-weight="700" letter-spacing="-.1" fill="#e7e9f2">Smart Agent</text>
  <text class="mono" x="414" y="35" font-size="8.5" letter-spacing="1.1" fill="#6366f1" text-anchor="end">OCT 2025</text>
  <text class="mono" x="130" y="54" font-size="8.4" fill="#8b90a8">Token-streaming assistant. The first thing I</text>
  <text class="mono" x="130" y="66" font-size="8.4" fill="#8b90a8">deployed, and where the safety pattern started.</text>
  <text class="mono" x="130" y="102" font-size="7.8" letter-spacing=".5" fill="#5c6180">JavaScript · LLM APIs</text>
  <text class="mono" x="14" y="110" font-size="7" letter-spacing="1" fill="#5c6180">06</text>
  <rect x="376" y="90" width="38" height="15" rx="5" fill="#6366f1" fill-opacity=".16" stroke="#6366f1" stroke-opacity=".5"/>
  <circle class="puls" cx="384" cy="97.5" r="2" fill="#6366f1" style="animation-delay:2.10s"/>
  <text class="mono" x="391" y="101" font-size="7" letter-spacing=".8" fill="#6366f1">LIVE</text>
</g>
<g transform="translate(16.0 452)">
  <rect width="428.0" height="116" rx="11" fill="url(#chip_pw)" stroke="#232739"/>
  <rect class="edge" width="428.0" height="116" rx="11" fill="none" stroke="#6366f1" stroke-opacity=".7" style="animation-delay:2.52s"/>
  <rect x="0" y="14" width="2.5" height="88" rx="1.25" fill="#2f3450"/>
  <rect class="edge" x="0" y="14" width="2.5" height="88" rx="1.25" fill="#a78bfa" style="animation-delay:2.52s"/>
  <rect x="12" y="18" width="104" height="80" rx="8" fill="#0b0d16" fill-opacity=".55" stroke="#232739"/>
  <g transform="translate(12 18)" clip-path="url(#vclip_pw)"><g stroke="#232739" stroke-width=".8"><path d="M6 16V72"/><path d="M19 16V72"/><path d="M32 16V72"/><path d="M45 16V72"/><path d="M58 16V72"/><path d="M71 16V72"/><path d="M84 16V72"/><path d="M97 16V72"/><path d="M6 16H97"/><path d="M6 72H97"/></g>
<g class="mono" font-size="5.5" fill="#5c6180" text-anchor="middle"><text x="12.5" y="12">M</text><text x="25.5" y="12">T</text><text x="38.5" y="12">W</text><text x="51.5" y="12">T</text><text x="64.5" y="12">F</text><text x="77.5" y="12">S</text><text x="90.5" y="12">S</text></g>
<rect x="7.5" y="22" width="10" height="14" rx="2.5" fill="#6366f1" fill-opacity=".28" stroke="#6366f1" stroke-opacity=".6"/><rect x="20.5" y="34" width="10" height="20" rx="2.5" fill="#6366f1" fill-opacity=".28" stroke="#6366f1" stroke-opacity=".6"/><rect x="33.5" y="18" width="10" height="12" rx="2.5" fill="#6366f1" fill-opacity=".28" stroke="#6366f1" stroke-opacity=".6"/><rect x="59.5" y="40" width="10" height="16" rx="2.5" fill="#6366f1" fill-opacity=".28" stroke="#6366f1" stroke-opacity=".6"/><rect x="72.5" y="26" width="10" height="22" rx="2.5" fill="#6366f1" fill-opacity=".28" stroke="#6366f1" stroke-opacity=".6"/><rect x="85.5" y="20" width="10" height="14" rx="2.5" fill="#6366f1" fill-opacity=".28" stroke="#6366f1" stroke-opacity=".6"/>
<g class="drag"><rect x="46.5" y="30" width="10" height="18" rx="2.5" fill="#a78bfa" fill-opacity=".4" stroke="#a78bfa"/></g>
<rect x="46.5" y="30" width="10" height="18" rx="2.5" fill="none" stroke="#2f3450" stroke-dasharray="2 3"/>
<text class="mono" x="6" y="80" font-size="6" letter-spacing=".7" fill="#5c6180">NO FRAMEWORK</text></g>
  <text class="sans" x="130" y="36" font-size="13.5" font-weight="700" letter-spacing="-.1" fill="#e7e9f2">Build My Week</text>
  <text class="mono" x="414" y="35" font-size="8.5" letter-spacing="1.1" fill="#6366f1" text-anchor="end">AUG 2025</text>
  <text class="mono" x="130" y="54" font-size="8.4" fill="#8b90a8">Drag-and-drop weekly planner with image export,</text>
  <text class="mono" x="130" y="66" font-size="8.4" fill="#8b90a8">written without a framework.</text>
  <text class="mono" x="130" y="102" font-size="7.8" letter-spacing=".5" fill="#5c6180">Vanilla JS · CSS</text>
  <text class="mono" x="14" y="110" font-size="7" letter-spacing="1" fill="#5c6180">07</text>
  <rect x="376" y="90" width="38" height="15" rx="5" fill="#6366f1" fill-opacity=".16" stroke="#6366f1" stroke-opacity=".5"/>
  <circle class="puls" cx="384" cy="97.5" r="2" fill="#6366f1" style="animation-delay:2.52s"/>
  <text class="mono" x="391" y="101" font-size="7" letter-spacing=".8" fill="#6366f1">LIVE</text>
</g>
<g transform="translate(456.0 452)">
  <rect width="428.0" height="116" rx="11" fill="url(#chip_pw)" stroke="#232739"/>
  <rect class="edge" width="428.0" height="116" rx="11" fill="none" stroke="#6366f1" stroke-opacity=".7" style="animation-delay:2.94s"/>
  <rect x="0" y="14" width="2.5" height="88" rx="1.25" fill="#2f3450"/>
  <rect class="edge" x="0" y="14" width="2.5" height="88" rx="1.25" fill="#a78bfa" style="animation-delay:2.94s"/>
  <rect x="12" y="18" width="104" height="80" rx="8" fill="#0b0d16" fill-opacity=".55" stroke="#232739"/>
  <g transform="translate(12 18)" clip-path="url(#vclip_pw)"><rect x="8" y="20" width="24" height="40" rx="4" fill="url(#chip_pw)" stroke="#232739"/>
<rect x="11" y="24" width="18" height="30" rx="2" fill="#6366f1" fill-opacity=".14"/>
<circle cx="20" cy="57" r="1.4" fill="#5c6180"/>
<rect x="66" y="22" width="30" height="24" rx="3" fill="url(#chip_pw)" stroke="#232739"/>
<rect x="69" y="25" width="24" height="18" rx="2" fill="#6366f1" fill-opacity=".14"/>
<path d="M81 46v6M74 52h14" stroke="#232739" stroke-width="1.2"/>
<path d="M34 32Q52 20 64 30" fill="none" stroke="#2f3450"/>
<path class="flow" d="M34 32Q52 20 64 30" fill="none" stroke="#a78bfa" stroke-width="1.2"/>
<circle r="2.4" fill="#a78bfa"><animateMotion dur="2.4s" repeatCount="indefinite" path="M34,32Q52,20 64,30"/></circle>
<path d="M64 44Q50 56 34 46" fill="none" stroke="#2f3450"/>
<path class="flow" d="M64 44Q50 56 34 46" fill="none" stroke="#6366f1" stroke-width="1.2"/>
<circle r="2.4" fill="#6366f1"><animateMotion dur="2.4s" begin="1.2s" repeatCount="indefinite" path="M64,44Q50,56 34,46"/></circle>
<text class="mono" x="49" y="70" font-size="9" fill="#a78bfa" text-anchor="middle">&#916;</text>
<text class="mono" x="49" y="79" font-size="5.5" letter-spacing=".6" fill="#5c6180" text-anchor="middle">DELTA ONLY</text></g>
  <text class="sans" x="130" y="36" font-size="13.5" font-weight="700" letter-spacing="-.1" fill="#e7e9f2">Universal Sync</text>
  <text class="mono" x="414" y="35" font-size="8" letter-spacing="1" fill="#5c6180" text-anchor="end">NO PUBLIC REPO</text>
  <text class="mono" x="130" y="54" font-size="8.4" fill="#8b90a8">Delta-based real-time sync across Android and</text>
  <text class="mono" x="130" y="66" font-size="8.4" fill="#8b90a8">desktop JVM from a single codebase.</text>
  <text class="mono" x="130" y="102" font-size="7.8" letter-spacing=".5" fill="#5c6180">Kotlin Multiplatform · Compose · Supabase · Ktor</text>
  <text class="mono" x="14" y="110" font-size="7" letter-spacing="1" fill="#5c6180">08</text>
  
</g>
<path d="M22 582h856" stroke="#232739"/>
<text class="mono" x="22" y="598" font-size="8" letter-spacing="1.1" fill="#5c6180">DATES ARE REPOSITORY CREATION DATES FROM THE GITHUB API</text>
<text class="mono" x="878" y="598" font-size="8" letter-spacing="1.1" fill="#5c6180" text-anchor="end">LINKS BELOW, SAME ORDER</text>
</svg>
